<!-- Icon made by Zurb from Foundation (https://github.com/zurb/foundation-icon-fonts) is licensed under MIT -->
<svg xmlns="http://www.w3.org/2000/svg" xmlns:xlink="http://www.w3.org/1999/xlink" aria-hidden="true" focusable="false" width="16px" height="16px" style="-ms-transform: rotate(360deg); -webkit-transform: rotate(360deg); transform: rotate(360deg);" preserveAspectRatio="xMidYMid meet" viewBox="0 0 100 100">
    <path d="M84.514 49.615H67.009a4.914 4.914 0 0 0-4.679 3.406a12.922 12.922 0 0 1-12.329 8.983a12.92 12.92 0 0 1-12.329-8.983a4.916 4.916 0 0 0-4.681-3.406H15.486a4.918 4.918 0 0 0-4.919 4.919v28.054a4.92 4.92 0 0 0 4.919 4.917h69.028a4.918 4.918 0 0 0 4.919-4.917V54.534c0-2.719-2.2-4.919-4.919-4.919z" fill="#626262"/><path d="M48.968 52.237c.247.346.651.553 1.076.553h.003c.428 0 .826-.207 1.076-.558l13.604-19.133a1.33 1.33 0 0 0 .096-1.374a1.319 1.319 0 0 0-1.177-.716h-6.399V13.821c0-.735-.593-1.326-1.323-1.326H44.078c-.732 0-1.323.591-1.323 1.326v17.188h-6.404a1.323 1.323 0 0 0-1.076 2.09l13.693 19.138z" fill="#626262"/>
</svg>
